<svg xmlns="http://www.w3.org/2000/svg" viewBox="0 0 2554.76 1442.7"><defs><style>.cls-1{fill:#ebf3fa;}.cls-2{fill:#bdd1f9;}.cls-3{fill:#f77d48;}.cls-4{fill:#ffb93e;}.cls-5{fill:#ffa412;}.cls-6{fill:#ffeddc;}.cls-7{fill:#db6a1d;}.cls-8{fill:#e5c1a1;}.cls-9{fill:#f9ddbf;}.cls-10,.cls-11{fill:#e2810e;}.cls-10{opacity:0.5;}.cls-12{fill:#163560;}.cls-13{fill:#ffb27d;}.cls-14,.cls-22{fill:#64c5ea;}.cls-15{fill:#96cfe0;}.cls-16{fill:#36599e;}.cls-17{fill:#2b478b;}.cls-18{fill:#e8945b;}.cls-19{fill:#233862;}.cls-20{fill:#fff;}.cls-21{fill:#b5453c;}.cls-22{stroke:#96cfe0;}.cls-22,.cls-27{stroke-miterlimit:10;}.cls-23{fill:#95c0f4;}.cls-24{fill:#b0d4ff;}.cls-25{fill:#ed975d;}.cls-26,.cls-27{fill:#a8ceff;}.cls-27{stroke:#93bbf0;}.cls-28{fill:#93bbf0;}.cls-29{fill:#2e3552;}</style></defs><g id="Calque_2" data-name="Calque 2"><g id="_Layer_" data-name="&lt;Layer&gt;"><path class="cls-1" d="M98.15,1436.68c.6-10.5-246.55-325.75,41.26-616.82,129.93-131.39,349.71-60.2,314.94-444C424.33,44.43,942.78-150.3,1265,145.59c208.17,191.17,418.92-63.86,749.17,80.84s112.78,538,248.3,575.05c267,73,399.53,394.24,186.7,631.63Z"/><rect class="cls-2" x="645.57" y="885.25" width="212.72" height="546.25"/><rect class="cls-2" x="976.49" y="706.71" width="212.72" height="724.79"/><rect class="cls-2" x="1277.38" y="514.01" width="232.92" height="917.48"/><rect class="cls-2" x="1593.29" y="387" width="212.72" height="1044.5"/><polygon class="cls-3" points="1510.3 819.77 1957.38 603.34 1757.99 1028.35 1724.28 835.52 1510.3 819.77"/><path class="cls-4" d="M1407.45,674.88a83.77,83.77,0,1,1,101.2,61.59A83.77,83.77,0,0,1,1407.45,674.88Z"/><path class="cls-5" d="M1507.12,730.2a76.33,76.33,0,1,1,47.16-34.49A75.85,75.85,0,0,1,1507.12,730.2Zm-35-143.9a71.77,71.77,0,1,0,86.7,52.77A71.85,71.85,0,0,0,1472.11,586.3Z"/><path class="cls-5" d="M1504.52,675.08a12.31,12.31,0,0,0-1.22-4.27,9.06,9.06,0,0,0-2.69-3.13,17.41,17.41,0,0,0-4.42-2.33,45.82,45.82,0,0,0-6.41-1.78q-6.46-1.43-11.82-3.19a38.09,38.09,0,0,1-9.33-4.45,22.18,22.18,0,0,1-6.48-6.61,25.18,25.18,0,0,1-2.53-19,21.35,21.35,0,0,1,4.19-7.79,26.63,26.63,0,0,1,7.28-5.92,35.31,35.31,0,0,1,10-3.68l-1.52-12.58,10.12-1.22,1.55,12.75a31.58,31.58,0,0,1,10.21,1.68,23.93,23.93,0,0,1,14,12.35,32,32,0,0,1,3,10.41l-18.29,2.21q-.85-7-4.41-10.17a10.8,10.8,0,0,0-8.8-2.48,13.64,13.64,0,0,0-4.81,1.39,9.23,9.23,0,0,0-3.12,2.58,8.76,8.76,0,0,0-1.57,3.5,13,13,0,0,0-.14,4.14,11.79,11.79,0,0,0,1.11,3.85,8.67,8.67,0,0,0,2.58,3,17.4,17.4,0,0,0,4.45,2.33,62.07,62.07,0,0,0,6.69,2q6.42,1.54,11.74,3.35a38.54,38.54,0,0,1,9.31,4.5,21.61,21.61,0,0,1,9.67,16.27,23.06,23.06,0,0,1-.67,9.51,20.78,20.78,0,0,1-4.24,7.72,25.51,25.51,0,0,1-7.35,5.79,38,38,0,0,1-10.06,3.6l1.42,11.7-10.06,1.21-1.41-11.63a42.77,42.77,0,0,1-10.43-1.06,27.3,27.3,0,0,1-9.32-4,24.28,24.28,0,0,1-7.09-7.64,29.66,29.66,0,0,1-3.74-11.83l18.28-2.22a18.09,18.09,0,0,0,2,6.82,11.65,11.65,0,0,0,3.67,4.09,11.39,11.39,0,0,0,4.74,1.81,19.53,19.53,0,0,0,5.18.06,16.15,16.15,0,0,0,5.13-1.4,10.79,10.79,0,0,0,3.5-2.57,8.47,8.47,0,0,0,1.89-3.48A10.39,10.39,0,0,0,1504.52,675.08Z"/><circle class="cls-4" cx="1929.69" cy="434.22" r="81.59" transform="translate(258.16 1491.68) rotate(-45)"/><path class="cls-5" d="M1932.65,509.46a74.33,74.33,0,1,1,51.67-23.82A73.86,73.86,0,0,1,1932.65,509.46ZM1927,365.34a69.9,69.9,0,1,0,72.59,67.1A70,70,0,0,0,1927,365.34Z"/><path class="cls-5" d="M1940.8,456.34a12.14,12.14,0,0,0-.34-4.31,9,9,0,0,0-2-3.51,17.07,17.07,0,0,0-3.78-3.07,46.29,46.29,0,0,0-5.77-2.95,116.53,116.53,0,0,1-10.67-5.32,37.29,37.29,0,0,1-8-6,21.91,21.91,0,0,1-4.91-7.56,24.61,24.61,0,0,1,1.25-18.64,20.71,20.71,0,0,1,5.51-6.62,25.7,25.7,0,0,1,8.08-4.25,34.36,34.36,0,0,1,10.25-1.59l1-12.3,9.9.78-1,12.47a30.9,30.9,0,0,1,9.43,3.58,23.32,23.32,0,0,1,11,14.49,31,31,0,0,1,.82,10.5l-17.88-1.41q.54-6.9-2.25-10.56a10.51,10.51,0,0,0-7.93-4.07,13.59,13.59,0,0,0-4.86.4,9,9,0,0,0-3.47,1.86,8.51,8.51,0,0,0-2.17,3,12.66,12.66,0,0,0-.94,3.92,11.46,11.46,0,0,0,.32,3.9,8.46,8.46,0,0,0,1.88,3.36,16.85,16.85,0,0,0,3.81,3.07,57,57,0,0,0,6,3.17q5.84,2.71,10.56,5.46a37.16,37.16,0,0,1,8,6.1,21,21,0,0,1,6.09,17.4,22.33,22.33,0,0,1-2.48,8.94,20.36,20.36,0,0,1-5.53,6.56,25.08,25.08,0,0,1-8.13,4.1,37,37,0,0,1-10.3,1.5l-.9,11.43-9.84-.77.9-11.38a42.05,42.05,0,0,1-9.76-3,26.36,26.36,0,0,1-8.11-5.64,23.5,23.5,0,0,1-5.29-8.66,28.72,28.72,0,0,1-1.3-12l17.88,1.42a17.81,17.81,0,0,0,.61,6.9,11.55,11.55,0,0,0,2.72,4.61,11.1,11.1,0,0,0,4.18,2.64,18.86,18.86,0,0,0,4.93,1.05,15.75,15.75,0,0,0,5.16-.34,10.52,10.52,0,0,0,3.85-1.78,8.45,8.45,0,0,0,2.47-2.95A10.28,10.28,0,0,0,1940.8,456.34Z"/><path class="cls-4" d="M1733.05,582.15a56.27,56.27,0,1,1,57.26,55.27A56.27,56.27,0,0,1,1733.05,582.15Z"/><path class="cls-5" d="M1790.23,633.08a51.27,51.27,0,1,1,36-15.66A50.94,50.94,0,0,1,1790.23,633.08Zm-1.76-99.47A48.21,48.21,0,1,0,1837.53,581,48.27,48.27,0,0,0,1788.47,533.61Z"/><path class="cls-5" d="M1796.65,596.57a8.38,8.38,0,0,0-.18-3,6,6,0,0,0-1.3-2.45,11.52,11.52,0,0,0-2.55-2.18,32.29,32.29,0,0,0-3.94-2.12,78.7,78.7,0,0,1-7.28-3.83,25.46,25.46,0,0,1-5.46-4.28,15,15,0,0,1-3.27-5.29,16.92,16.92,0,0,1,1.14-12.83,14.22,14.22,0,0,1,3.89-4.49,18,18,0,0,1,5.64-2.81,23.76,23.76,0,0,1,7.09-.94l.85-8.47,6.82.69-.87,8.58a21.61,21.61,0,0,1,6.45,2.61,16.08,16.08,0,0,1,7.35,10.15,21.52,21.52,0,0,1,.41,7.26L1799.13,572c.32-3.17-.15-5.6-1.4-7.32a7.23,7.23,0,0,0-5.4-2.92,9.29,9.29,0,0,0-3.36.2,6.24,6.24,0,0,0-2.42,1.24,5.87,5.87,0,0,0-1.55,2.06,8.87,8.87,0,0,0-.7,2.69,7.9,7.9,0,0,0,.16,2.69,5.92,5.92,0,0,0,1.25,2.35,11.87,11.87,0,0,0,2.58,2.17,40.25,40.25,0,0,0,4.09,2.28q4,2,7.2,3.92a26,26,0,0,1,5.44,4.32,14.51,14.51,0,0,1,3.94,12.09,15.35,15.35,0,0,1-1.84,6.13,14,14,0,0,1-3.91,4.44,17.14,17.14,0,0,1-5.67,2.71,25.57,25.57,0,0,1-7.13.88l-.79,7.87-6.77-.68.79-7.83A28.54,28.54,0,0,1,1777,609a18.18,18.18,0,0,1-5.52-4,16.42,16.42,0,0,1-3.52-6,19.86,19.86,0,0,1-.71-8.3l12.31,1.24a12.21,12.21,0,0,0,.32,4.77,8,8,0,0,0,1.8,3.21,7.73,7.73,0,0,0,2.85,1.89,13,13,0,0,0,3.38.8,10.82,10.82,0,0,0,3.56-.16,7.21,7.21,0,0,0,2.68-1.17,5.69,5.69,0,0,0,1.75-2A7,7,0,0,0,1796.65,596.57Z"/><circle class="cls-4" cx="1626.43" cy="365.28" r="137.32" transform="translate(-21.02 111.12) rotate(-3.89)"/><path class="cls-5" d="M1666.27,485.59A125.11,125.11,0,1,1,1738.73,423,124.24,124.24,0,0,1,1666.27,485.59ZM1590,255.14a117.65,117.65,0,1,0,148.67,74.7A117.78,117.78,0,0,0,1590,255.14Z"/><path class="cls-5" d="M1654.71,395.88a20.75,20.75,0,0,0-2.57-6.81,15.09,15.09,0,0,0-4.81-4.76,28.25,28.25,0,0,0-7.53-3.21,76,76,0,0,0-10.72-2.07,198,198,0,0,1-19.72-3.64,62.55,62.55,0,0,1-15.84-6,36.66,36.66,0,0,1-11.47-9.93,38,38,0,0,1-6.51-15.41,37.54,37.54,0,0,1-.14-15.32,34.82,34.82,0,0,1,5.81-13.28,43.65,43.65,0,0,1,11.11-10.64,57.69,57.69,0,0,1,15.82-7.34L1604,277.09l16.38-3.34,4.21,20.63a52,52,0,0,1,16.92,1.39A39.28,39.28,0,0,1,1666,314.09a52.39,52.39,0,0,1,6.22,16.61l-29.58,6q-2.34-11.4-8.56-16t-14.71-2.88a22.42,22.42,0,0,0-7.67,2.91,15.08,15.08,0,0,0-4.76,4.63,14.09,14.09,0,0,0-2.09,5.93,20.79,20.79,0,0,0,.31,6.77,19.21,19.21,0,0,0,2.33,6.16,14.13,14.13,0,0,0,4.61,4.55,28.69,28.69,0,0,0,7.58,3.21,96.71,96.71,0,0,0,11.19,2.31q10.7,1.68,19.62,3.92a63.05,63.05,0,0,1,15.81,6.12,35.4,35.4,0,0,1,18,25.3,37.79,37.79,0,0,1,.15,15.62,34.35,34.35,0,0,1-5.89,13.19,42,42,0,0,1-11.25,10.42,62.26,62.26,0,0,1-16,7.22l3.86,18.92-16.27,3.33-3.85-18.82a70.47,70.47,0,0,1-17.18-.35,44.54,44.54,0,0,1-15.76-5.35,39.86,39.86,0,0,1-12.59-11.54q-5.36-7.42-7.69-18.83l29.58-6.05a29.8,29.8,0,0,0,4.2,10.88,19.16,19.16,0,0,0,6.54,6.19,18.67,18.67,0,0,0,8,2.33,32.06,32.06,0,0,0,8.46-.59,26.52,26.52,0,0,0,8.19-3,17.69,17.69,0,0,0,5.39-4.66,14.25,14.25,0,0,0,2.63-5.94A17.33,17.33,0,0,0,1654.71,395.88Z"/><path class="cls-4" d="M1762.74,1416v13.22a4.53,4.53,0,0,1-1,2.84,6,6,0,0,1-2.85,1.9,5.29,5.29,0,0,1-1.11.27,6.27,6.27,0,0,1-1.07.08H1506c-3,0-5.56-1.89-6-4.33,0-.17,0-.33,0-.5s0-.18,0-.26V1416c0-.09,0-.18,0-.26s0-.34,0-.5c.45-2.45,3-4.33,6-4.33h250.72a7.49,7.49,0,0,1,1.07.07,6.91,6.91,0,0,1,1.11.27,6.12,6.12,0,0,1,2.85,1.9A4.58,4.58,0,0,1,1762.74,1416Z"/><path class="cls-5" d="M1639.62,1434.26H1505.3a5.37,5.37,0,0,1-5.21-3.77c-.06-.19-.11-.37-.15-.56s0-.33,0-.5,0-.18,0-.26V1416c0-.09,0-.18,0-.26s0-.34,0-.5a5.12,5.12,0,0,1,.15-.56,5.36,5.36,0,0,1,5.21-3.77h117.83A41,41,0,0,0,1639.62,1434.26Z"/><rect class="cls-5" x="1729.38" y="1410.85" width="2.85" height="23.41"/><rect class="cls-5" x="1719.73" y="1410.85" width="2.85" height="23.41"/><rect class="cls-5" x="1708.17" y="1410.85" width="2.85" height="23.41"/><rect class="cls-5" x="1690.44" y="1410.85" width="2.85" height="23.41"/><rect class="cls-5" x="1671.69" y="1410.85" width="2.85" height="23.41"/><rect class="cls-5" x="1642.95" y="1410.85" width="2.85" height="23.41"/><rect class="cls-5" x="1616.03" y="1410.85" width="2.85" height="23.41"/><rect class="cls-5" x="1592" y="1410.85" width="2.85" height="23.41"/><rect class="cls-5" x="1738.56" y="1410.85" width="2.85" height="23.41"/><rect class="cls-5" x="1744.62" y="1410.85" width="2.85" height="23.41"/><rect class="cls-5" x="1750.48" y="1410.85" width="2.85" height="23.41"/><path class="cls-5" d="M1757.74,1410.94v23.24a7.59,7.59,0,0,1-1.07.08h-1.78v-23.41h1.78A6.35,6.35,0,0,1,1757.74,1410.94Z"/><path class="cls-5" d="M1761.7,1413.1V1432a6.06,6.06,0,0,1-2.85,1.91V1411.2A6,6,0,0,1,1761.7,1413.1Z"/><path class="cls-4" d="M1735.93,1392.54v13.22a4.58,4.58,0,0,1-1,2.85,5.34,5.34,0,0,1-.57.6,6.1,6.1,0,0,1-2.28,1.3,6.43,6.43,0,0,1-1.11.26,7.33,7.33,0,0,1-1.06.09H1479.14c-3,0-5.55-1.9-6-4.34a4.23,4.23,0,0,1-.05-.5,2.17,2.17,0,0,1,0-.26v-13.22a2.26,2.26,0,0,1,0-.26,4.23,4.23,0,0,1,.05-.5c.45-2.44,3-4.33,6-4.33h250.73a3.7,3.7,0,0,1,.47,0h.21a.83.83,0,0,1,.22,0l.16,0a6.43,6.43,0,0,1,1.11.26l.61.23h0l.39.19.22.13.21.12a4.92,4.92,0,0,1,.73.54l.21.2.13.12s0,0,.06.07l.06,0,.22.26A4.55,4.55,0,0,1,1735.93,1392.54Z"/><path class="cls-5" d="M1612.81,1410.86H1478.49a5.37,5.37,0,0,1-5.2-3.79,3.44,3.44,0,0,1-.15-.55,4.23,4.23,0,0,1-.05-.5,2.17,2.17,0,0,1,0-.26v-13.22a2.26,2.26,0,0,1,0-.26,4.23,4.23,0,0,1,.05-.5,3.44,3.44,0,0,1,.15-.55,5.36,5.36,0,0,1,5.2-3.78h117.83c0,.19.1.38.16.57A41,41,0,0,0,1612.81,1410.86Z"/><rect class="cls-5" x="1702.57" y="1387.45" width="2.85" height="23.41"/><rect class="cls-5" x="1692.93" y="1387.45" width="2.85" height="23.41"/><rect class="cls-5" x="1681.36" y="1387.45" width="2.85" height="23.41"/><rect class="cls-5" x="1663.63" y="1387.45" width="2.85" height="23.41"/><rect class="cls-5" x="1644.88" y="1387.45" width="2.85" height="23.41"/><rect class="cls-5" x="1616.14" y="1387.45" width="2.85" height="23.41"/><rect class="cls-5" x="1589.23" y="1387.45" width="2.85" height="23.41"/><rect class="cls-5" x="1565.2" y="1387.45" width="2.85" height="23.41"/><rect class="cls-5" x="1711.75" y="1387.45" width="2.85" height="23.41"/><rect class="cls-5" x="1717.82" y="1387.45" width="2.85" height="23.41"/><rect class="cls-5" x="1723.68" y="1387.45" width="2.85" height="23.41"/><path class="cls-5" d="M1730.93,1387.53v23.24a7.48,7.48,0,0,1-1.07.08h-1.78v-23.4h1.78A7.48,7.48,0,0,1,1730.93,1387.53Z"/><path class="cls-5" d="M1734.89,1389.7v18.9a6,6,0,0,1-2.85,1.91v-22.72A6,6,0,0,1,1734.89,1389.7Z"/><path class="cls-4" d="M1748.88,1369.71v13.22a4.52,4.52,0,0,1-1,2.85,6.09,6.09,0,0,1-2.84,1.9,7.64,7.64,0,0,1-1.12.27,9.13,9.13,0,0,1-1.06.07H1492.09a7.09,7.09,0,0,1-2.79-.57,5.33,5.33,0,0,1-3.2-3.7c0-.11,0-.22,0-.33a1.64,1.64,0,0,1,0-.23,2.17,2.17,0,0,1,0-.26v-13.22a2.35,2.35,0,0,1,0-.26,2.73,2.73,0,0,1,.06-.49c.44-2.45,3-4.34,6-4.34h250.73a7.34,7.34,0,0,1,1.06.08,5.72,5.72,0,0,1,1.12.26,6.1,6.1,0,0,1,2.84,1.91A4.47,4.47,0,0,1,1748.88,1369.71Z"/><path class="cls-5" d="M1625.77,1388H1491.45a5.74,5.74,0,0,1-2.5-.57,5.19,5.19,0,0,1-2.85-3.7c0-.11,0-.22,0-.33a1.64,1.64,0,0,1,0-.23,2.17,2.17,0,0,1,0-.26v-13.22a2.35,2.35,0,0,1,0-.26,2.73,2.73,0,0,1,.06-.49,3.7,3.7,0,0,1,.14-.55,5.36,5.36,0,0,1,5.21-3.79h117.82a41.12,41.12,0,0,0,15.68,22.83C1625.21,1387.64,1625.49,1387.84,1625.77,1388Z"/><rect class="cls-5" x="1715.53" y="1364.62" width="2.85" height="23.41"/><rect class="cls-5" x="1705.88" y="1364.62" width="2.85" height="23.41"/><rect class="cls-5" x="1694.31" y="1364.62" width="2.85" height="23.41"/><rect class="cls-5" x="1676.58" y="1364.62" width="2.85" height="23.41"/><rect class="cls-5" x="1657.83" y="1364.62" width="2.85" height="23.41"/><rect class="cls-5" x="1629.09" y="1364.62" width="2.85" height="23.41"/><rect class="cls-5" x="1602.18" y="1364.62" width="2.85" height="23.41"/><rect class="cls-5" x="1578.15" y="1364.62" width="2.85" height="23.41"/><rect class="cls-5" x="1724.71" y="1364.62" width="2.85" height="23.41"/><rect class="cls-5" x="1730.77" y="1364.62" width="2.85" height="23.41"/><rect class="cls-5" x="1736.63" y="1364.62" width="2.85" height="23.41"/><path class="cls-5" d="M1743.89,1364.7v23.24a6.35,6.35,0,0,1-1.07.08H1741v-23.4h1.78A7.59,7.59,0,0,1,1743.89,1364.7Z"/><path class="cls-5" d="M1747.84,1366.87v18.91a6.09,6.09,0,0,1-2.84,1.9V1365A6,6,0,0,1,1747.84,1366.87Z"/><path class="cls-4" d="M1754.89,1346.31v13.21a4.5,4.5,0,0,1-1,2.85,4.12,4.12,0,0,1-.28.31,5.68,5.68,0,0,1-1.73,1.26,7,7,0,0,1-.84.34,6.65,6.65,0,0,1-1.11.26l-.52.06-.55,0H1498.1c-3,0-5.56-1.89-6-4.34,0-.16,0-.33,0-.49V1346c.16-2.48,2.44-4.5,5.34-4.79.24,0,.48,0,.72,0h250.72a5.07,5.07,0,0,1,.55,0,4.35,4.35,0,0,1,.52.06,5.79,5.79,0,0,1,1.11.26,6,6,0,0,1,2.85,1.9A4.48,4.48,0,0,1,1754.89,1346.31Z"/><path class="cls-5" d="M1631.77,1364.62H1497.45a5.38,5.38,0,0,1-5.21-3.78,5.12,5.12,0,0,1-.15-.56c0-.16,0-.33,0-.49V1346a5.27,5.27,0,0,1,4.77-4.79c.21,0,.42,0,.64,0h117.83s0,0,0,0A41.08,41.08,0,0,0,1631.77,1364.62Z"/><rect class="cls-5" x="1721.53" y="1341.21" width="2.85" height="23.41"/><rect class="cls-5" x="1711.89" y="1341.21" width="2.85" height="23.41"/><rect class="cls-5" x="1700.32" y="1341.21" width="2.85" height="23.41"/><rect class="cls-5" x="1682.59" y="1341.21" width="2.85" height="23.41"/><rect class="cls-5" x="1663.84" y="1341.21" width="2.85" height="23.41"/><rect class="cls-5" x="1635.1" y="1341.21" width="2.85" height="23.41"/><rect class="cls-5" x="1608.19" y="1341.21" width="2.85" height="23.41"/><rect class="cls-5" x="1584.16" y="1341.21" width="2.85" height="23.41"/><rect class="cls-5" x="1730.71" y="1341.21" width="2.85" height="23.41"/><rect class="cls-5" x="1736.78" y="1341.21" width="2.85" height="23.41"/><rect class="cls-5" x="1742.64" y="1341.21" width="2.85" height="23.41"/><path class="cls-5" d="M1749.89,1341.29v23.25a7.48,7.48,0,0,1-1.07.08H1747v-23.41h1.78A7.48,7.48,0,0,1,1749.89,1341.29Z"/><path class="cls-5" d="M1753.85,1343.46v18.91a6,6,0,0,1-2.85,1.9v-22.72A6.08,6.08,0,0,1,1753.85,1343.46Z"/><path class="cls-4" d="M1736.45,1322.94v13.21a4.44,4.44,0,0,1-1,2.84,6,6,0,0,1-2.85,1.92,6.87,6.87,0,0,1-1.11.25,2,2,0,0,1-.35,0h0l-.18,0H1479.67c-3.23,0-5.89-2.15-6.06-4.83a2.35,2.35,0,0,1,0-.27v-13.21a2.44,2.44,0,0,1,0-.27,1.49,1.49,0,0,1,0-.21,5.49,5.49,0,0,1,4.55-4.46.84.84,0,0,1,.18,0,7,7,0,0,1,1.31-.13h250.72l.54,0,.23,0h0a1.26,1.26,0,0,1,.28,0,6.87,6.87,0,0,1,1.11.25,6,6,0,0,1,2.85,1.92A4.44,4.44,0,0,1,1736.45,1322.94Z"/><path class="cls-5" d="M1613.34,1341.25H1479a5.3,5.3,0,0,1-5.41-4.83,2.35,2.35,0,0,1,0-.27v-13.21a2.44,2.44,0,0,1,0-.27,1.49,1.49,0,0,1,0-.21,5.23,5.23,0,0,1,4.2-4.49.85.85,0,0,1,.23,0,5,5,0,0,1,1-.09h117.82l.05.17a41,41,0,0,0,16.39,23.2Z"/><rect class="cls-5" x="1703.1" y="1317.84" width="2.85" height="23.41"/><rect class="cls-5" x="1693.45" y="1317.84" width="2.85" height="23.41"/><rect class="cls-5" x="1681.89" y="1317.84" width="2.85" height="23.41"/><rect class="cls-5" x="1664.16" y="1317.84" width="2.85" height="23.41"/><rect class="cls-5" x="1645.41" y="1317.84" width="2.85" height="23.41"/><rect class="cls-5" x="1616.66" y="1317.84" width="2.85" height="23.41"/><rect class="cls-5" x="1589.75" y="1317.84" width="2.85" height="23.41"/><rect class="cls-5" x="1565.72" y="1317.84" width="2.85" height="23.41"/><rect class="cls-5" x="1712.28" y="1317.84" width="2.85" height="23.41"/><rect class="cls-5" x="1718.35" y="1317.84" width="2.85" height="23.41"/><rect class="cls-5" x="1724.2" y="1317.84" width="2.85" height="23.41"/><path class="cls-5" d="M1731.46,1317.92v23.25a7.48,7.48,0,0,1-1.07.08h-1.78v-23.41h1.78A7.48,7.48,0,0,1,1731.46,1317.92Z"/><path class="cls-5" d="M1735.42,1320.09V1339a6.13,6.13,0,0,1-2.85,1.91v-22.72A6,6,0,0,1,1735.42,1320.09Z"/><path class="cls-4" d="M1735.93,1299.7v13.21a4.56,4.56,0,0,1-1,2.85,6.45,6.45,0,0,1-.57.61,6.24,6.24,0,0,1-2.28,1.3,8.33,8.33,0,0,1-.86.22h0l-.23,0a7.34,7.34,0,0,1-1.06.08H1479.14a6.79,6.79,0,0,1-.78,0l-.3,0a5.66,5.66,0,0,1-4.93-4.31,3.27,3.27,0,0,1,0-.44,2.44,2.44,0,0,1,0-.27V1299.7a2.44,2.44,0,0,1,0-.27,4.28,4.28,0,0,1,.05-.49c.45-2.44,3-4.34,6-4.34h250.73l.47,0h.21l.22,0a.41.41,0,0,1,.16,0,5.62,5.62,0,0,1,1.11.26l.61.23h0a6.11,6.11,0,0,1,2,1.41l.22.26A4.54,4.54,0,0,1,1735.93,1299.7Z"/><path class="cls-5" d="M1612.81,1318H1478.18c-.12,0-.24,0-.35,0a5.3,5.3,0,0,1-4.7-4.35,3.27,3.27,0,0,1,0-.44,2.44,2.44,0,0,1,0-.27V1299.7a2.44,2.44,0,0,1,0-.27,4.28,4.28,0,0,1,.05-.49,3.87,3.87,0,0,1,.15-.56,5.37,5.37,0,0,1,5.2-3.78h117.83c0,.2.1.39.16.58a40.92,40.92,0,0,0,16.09,22.66Z"/><rect class="cls-5" x="1702.57" y="1294.6" width="2.85" height="23.41"/><rect class="cls-5" x="1692.93" y="1294.6" width="2.85" height="23.41"/><rect class="cls-5" x="1681.36" y="1294.6" width="2.85" height="23.41"/><rect class="cls-5" x="1663.63" y="1294.6" width="2.85" height="23.41"/><rect class="cls-5" x="1644.88" y="1294.6" width="2.85" height="23.41"/><rect class="cls-5" x="1616.14" y="1294.6" width="2.85" height="23.41"/><rect class="cls-5" x="1589.23" y="1294.6" width="2.85" height="23.41"/><rect class="cls-5" x="1565.2" y="1294.6" width="2.85" height="23.41"/><rect class="cls-5" x="1711.75" y="1294.6" width="2.85" height="23.41"/><rect class="cls-5" x="1717.82" y="1294.6" width="2.85" height="23.41"/><rect class="cls-5" x="1723.68" y="1294.6" width="2.85" height="23.41"/><path class="cls-5" d="M1730.93,1294.69v23.24a7.48,7.48,0,0,1-1.07.08h-1.78V1294.6h1.78A6.26,6.26,0,0,1,1730.93,1294.69Z"/><path class="cls-5" d="M1734.89,1296.85v18.91a6,6,0,0,1-2.85,1.91V1295A6,6,0,0,1,1734.89,1296.85Z"/><path class="cls-4" d="M1748.88,1276.87v13.21a4.48,4.48,0,0,1-1,2.85,6,6,0,0,1-2.84,1.91,7.64,7.64,0,0,1-1.12.26,7.34,7.34,0,0,1-1.06.08H1492.09a6.93,6.93,0,0,1-2.79-.58,5.32,5.32,0,0,1-3.2-3.69c0-.11,0-.22,0-.33a1.79,1.79,0,0,1,0-.23,2.35,2.35,0,0,1,0-.27v-13.21a2.44,2.44,0,0,1,0-.27,2.73,2.73,0,0,1,.06-.49c.44-2.44,3-4.34,6-4.34h250.73a6.15,6.15,0,0,1,1.06.09,5.72,5.72,0,0,1,1.12.26,5.89,5.89,0,0,1,2.84,1.91A4.45,4.45,0,0,1,1748.88,1276.87Z"/><path class="cls-5" d="M1625.77,1295.18H1491.45a5.61,5.61,0,0,1-2.5-.58,5.17,5.17,0,0,1-2.85-3.69c0-.11,0-.22,0-.33a1.79,1.79,0,0,1,0-.23,2.35,2.35,0,0,1,0-.27v-13.21a2.44,2.44,0,0,1,0-.27,2.73,2.73,0,0,1,.06-.49,3.05,3.05,0,0,1,.14-.54,5.36,5.36,0,0,1,5.21-3.8h117.82A41.06,41.06,0,0,0,1625,1294.6C1625.21,1294.8,1625.49,1295,1625.77,1295.18Z"/><rect class="cls-5" x="1715.53" y="1271.78" width="2.85" height="23.41"/><rect class="cls-5" x="1705.88" y="1271.78" width="2.85" height="23.41"/><rect class="cls-5" x="1694.31" y="1271.78" width="2.85" height="23.41"/><rect class="cls-5" x="1676.58" y="1271.78" width="2.85" height="23.41"/><rect class="cls-5" x="1657.83" y="1271.78" width="2.85" height="23.41"/><rect class="cls-5" x="1629.09" y="1271.78" width="2.85" height="23.41"/><rect class="cls-5" x="1602.18" y="1271.78" width="2.85" height="23.41"/><rect class="cls-5" x="1578.15" y="1271.78" width="2.85" height="23.41"/><rect class="cls-5" x="1724.71" y="1271.78" width="2.85" height="23.41"/><rect class="cls-5" x="1730.77" y="1271.78" width="2.85" height="23.41"/><rect class="cls-5" x="1736.63" y="1271.78" width="2.85" height="23.41"/><path class="cls-5" d="M1743.89,1271.86v23.24a7.59,7.59,0,0,1-1.07.08H1741v-23.41h1.78A6.35,6.35,0,0,1,1743.89,1271.86Z"/><path class="cls-5" d="M1747.84,1274v18.91a6,6,0,0,1-2.84,1.91v-22.72A6,6,0,0,1,1747.84,1274Z"/><path class="cls-4" d="M1769.37,1253.46v13.22a4.54,4.54,0,0,1-1,2.84h0l-.27.32a6,6,0,0,1-1.34,1.05,6.55,6.55,0,0,1-.8.38h0a4.11,4.11,0,0,1-.42.15,5.89,5.89,0,0,1-1.12.26,6.15,6.15,0,0,1-1.06.08H1512.58c-3,0-5.55-1.89-6-4.33a4.23,4.23,0,0,1,0-.5,2.26,2.26,0,0,1,0-.26v-13.22a2.26,2.26,0,0,1,0-.26c.15-2.47,2.43-4.5,5.34-4.79a5.63,5.63,0,0,1,.71,0h250.73a7.34,7.34,0,0,1,1.06.08,8,8,0,0,1,1.12.26,6.32,6.32,0,0,1,2.57,1.59l.27.32h0A4.54,4.54,0,0,1,1769.37,1253.46Z"/><path class="cls-5" d="M1646.26,1271.77H1511.93a5.38,5.38,0,0,1-5.21-3.79c0-.17-.1-.36-.14-.54a4.23,4.23,0,0,1,0-.5,2.26,2.26,0,0,1,0-.26v-13.22a2.26,2.26,0,0,1,0-.26,5.25,5.25,0,0,1,4.76-4.79,4.49,4.49,0,0,1,.64,0h117.83s0,0,0,0A41,41,0,0,0,1646.26,1271.77Z"/><rect class="cls-5" x="1736.02" y="1248.37" width="2.85" height="23.41"/><rect class="cls-5" x="1726.37" y="1248.37" width="2.85" height="23.41"/><rect class="cls-5" x="1714.8" y="1248.37" width="2.85" height="23.41"/><rect class="cls-5" x="1697.07" y="1248.37" width="2.85" height="23.41"/><rect class="cls-5" x="1678.32" y="1248.37" width="2.85" height="23.41"/><rect class="cls-5" x="1649.58" y="1248.37" width="2.85" height="23.41"/><rect class="cls-5" x="1622.67" y="1248.37" width="2.85" height="23.41"/><rect class="cls-5" x="1598.64" y="1248.37" width="2.85" height="23.41"/><rect class="cls-5" x="1745.2" y="1248.37" width="2.85" height="23.41"/><rect class="cls-5" x="1751.26" y="1248.37" width="2.85" height="23.41"/><rect class="cls-5" x="1757.12" y="1248.37" width="2.85" height="23.41"/><path class="cls-5" d="M1764.38,1248.45v23.24a7.59,7.59,0,0,1-1.07.08h-1.78v-23.4h1.78A7.59,7.59,0,0,1,1764.38,1248.45Z"/><path class="cls-5" d="M1768.33,1250.62v18.9a6,6,0,0,1-2.84,1.91v-22.72A6,6,0,0,1,1768.33,1250.62Z"/><path class="cls-4" d="M1736.45,1230.1v13.21a4.44,4.44,0,0,1-1,2.84,6.4,6.4,0,0,1-4,2.17l-.35,0h0l-.23,0H1479.67a6.38,6.38,0,0,1-5.16-2.43,4.59,4.59,0,0,1-.9-2.41,2.35,2.35,0,0,1,0-.26V1230.1a2.26,2.26,0,0,1,0-.27,5.38,5.38,0,0,1,4.3-4.61,6.79,6.79,0,0,1,1.76-.22h251l.16,0a5.61,5.61,0,0,1,.59.06,6.89,6.89,0,0,1,1.11.26,3.86,3.86,0,0,1,.51.2h0a6,6,0,0,1,1.76,1.1l0,0,.07.07a4.52,4.52,0,0,1,1.51,3.36Z"/><path class="cls-5" d="M1613.34,1248.41H1479a5.52,5.52,0,0,1-4.52-2.31,4.83,4.83,0,0,1-.89-2.53,2.35,2.35,0,0,1,0-.26V1230.1a2.26,2.26,0,0,1,0-.27,5.21,5.21,0,0,1,4.32-4.72,5.6,5.6,0,0,1,1.09-.11h117.82c.05.18.11.36.16.54a41,41,0,0,0,16.28,22.83Z"/><rect class="cls-5" x="1703.1" y="1225" width="2.85" height="23.41"/><rect class="cls-5" x="1693.45" y="1225" width="2.85" height="23.41"/><rect class="cls-5" x="1681.89" y="1225" width="2.85" height="23.41"/><rect class="cls-5" x="1664.16" y="1225" width="2.85" height="23.41"/><rect class="cls-5" x="1645.41" y="1225" width="2.85" height="23.41"/><rect class="cls-5" x="1616.66" y="1225" width="2.85" height="23.41"/><rect class="cls-5" x="1589.75" y="1225" width="2.85" height="23.41"/><rect class="cls-5" x="1565.72" y="1225" width="2.85" height="23.41"/><rect class="cls-5" x="1712.28" y="1225" width="2.85" height="23.41"/><rect class="cls-5" x="1718.35" y="1225" width="2.85" height="23.41"/><rect class="cls-5" x="1724.2" y="1225" width="2.85" height="23.41"/><path class="cls-5" d="M1731.46,1225.08v23.24a6.27,6.27,0,0,1-1.07.08h-1.78V1225h1.78A7.48,7.48,0,0,1,1731.46,1225.08Z"/><path class="cls-5" d="M1735.42,1227.25v18.9a6.06,6.06,0,0,1-2.85,1.91v-22.72A6.06,6.06,0,0,1,1735.42,1227.25Z"/><path class="cls-4" d="M1754.89,1207.23v13.21a4.48,4.48,0,0,1-1,2.85,6.08,6.08,0,0,1-2.85,1.91,7.12,7.12,0,0,1-2.18.34H1498.1a7.08,7.08,0,0,1-2.71-.54,5.23,5.23,0,0,1-3.33-4.09c0-.06,0-.13,0-.2V1207c.15-2.48,2.44-4.5,5.35-4.79a5.53,5.53,0,0,1,.71,0h250.72a7.48,7.48,0,0,1,1.07.08,6.43,6.43,0,0,1,1.11.27,6,6,0,0,1,2.85,1.9A4.5,4.5,0,0,1,1754.89,1207.23Z"/><path class="cls-5" d="M1631.77,1225.54H1497.45a5.72,5.72,0,0,1-2.42-.54,5.14,5.14,0,0,1-3-4.09c0-.06,0-.13,0-.2V1207a5.26,5.26,0,0,1,4.77-4.79,4.49,4.49,0,0,1,.64,0h117.83a.06.06,0,0,0,0,0A41,41,0,0,0,1631,1225Z"/><rect class="cls-5" x="1721.53" y="1202.13" width="2.85" height="23.41"/><rect class="cls-5" x="1711.89" y="1202.13" width="2.85" height="23.41"/><rect class="cls-5" x="1700.32" y="1202.13" width="2.85" height="23.41"/><rect class="cls-5" x="1682.59" y="1202.13" width="2.85" height="23.41"/><rect class="cls-5" x="1663.84" y="1202.13" width="2.85" height="23.41"/><rect class="cls-5" x="1635.1" y="1202.13" width="2.85" height="23.41"/><rect class="cls-5" x="1608.19" y="1202.13" width="2.85" height="23.41"/><rect class="cls-5" x="1584.16" y="1202.13" width="2.85" height="23.41"/><rect class="cls-5" x="1730.71" y="1202.13" width="2.85" height="23.41"/><rect class="cls-5" x="1736.78" y="1202.13" width="2.85" height="23.41"/><rect class="cls-5" x="1742.64" y="1202.13" width="2.85" height="23.41"/><path class="cls-5" d="M1749.89,1202.21v23.25a7.48,7.48,0,0,1-1.07.08H1747v-23.41h1.78A7.48,7.48,0,0,1,1749.89,1202.21Z"/><path class="cls-5" d="M1753.85,1204.38v18.91a6,6,0,0,1-2.85,1.9v-22.72A6.08,6.08,0,0,1,1753.85,1204.38Z"/><path class="cls-4" d="M1762.74,1183.86v13.21a4.56,4.56,0,0,1-1,2.85,6,6,0,0,1-2.85,1.9,6.91,6.91,0,0,1-1.11.27l-.35,0-.2,0H1506c-3.23,0-5.9-2.15-6.06-4.83,0-.09,0-.18,0-.27v-13.21c0-.09,0-.18,0-.27.16-2.68,2.83-4.83,6.06-4.83h250.72a7.59,7.59,0,0,1,1.07.08,6.91,6.91,0,0,1,1.11.27,6,6,0,0,1,2.85,1.9A4.56,4.56,0,0,1,1762.74,1183.86Z"/><path class="cls-5" d="M1639.62,1202.17H1505.3a5.31,5.31,0,0,1-5.41-4.83c0-.09,0-.18,0-.27v-13.21c0-.09,0-.18,0-.27a5.31,5.31,0,0,1,5.41-4.83h117.82a41,41,0,0,0,16.45,23.37Z"/><rect class="cls-5" x="1729.38" y="1178.76" width="2.85" height="23.41"/><rect class="cls-5" x="1719.73" y="1178.76" width="2.85" height="23.41"/><rect class="cls-5" x="1708.17" y="1178.76" width="2.85" height="23.41"/><rect class="cls-5" x="1690.44" y="1178.76" width="2.85" height="23.41"/><rect class="cls-5" x="1671.69" y="1178.76" width="2.85" height="23.41"/><rect class="cls-5" x="1642.95" y="1178.76" width="2.85" height="23.41"/><rect class="cls-5" x="1616.03" y="1178.76" width="2.85" height="23.41"/><rect class="cls-5" x="1592" y="1178.76" width="2.85" height="23.41"/><rect class="cls-5" x="1738.56" y="1178.76" width="2.85" height="23.41"/><rect class="cls-5" x="1744.63" y="1178.76" width="2.85" height="23.41"/><rect class="cls-5" x="1750.48" y="1178.76" width="2.85" height="23.41"/><path class="cls-5" d="M1757.74,1178.84v23.25a7.48,7.48,0,0,1-1.07.08h-1.78v-23.41h1.78A7.48,7.48,0,0,1,1757.74,1178.84Z"/><path class="cls-5" d="M1761.7,1181v18.91a6,6,0,0,1-2.85,1.9v-22.71A6,6,0,0,1,1761.7,1181Z"/><path class="cls-6" d="M1683.26,1045.38s-13.17,18.54-25.24,18.79-30.44-8.59-30.44-8.59-11.08-24.7-3.57-34.37a16.16,16.16,0,0,1,15.43,2.53,23.79,23.79,0,0,1,4.08,3.91,13,13,0,0,0,6.34,4.3c8.61,2.62,18.84-3.54,22.66,2.41a40.58,40.58,0,0,0,6.66,7.88A30,30,0,0,0,1683.26,1045.38Z"/><path class="cls-6" d="M1511.58,1179.11s46.55-112.79,130.33-114.94c0,0,77.34,8.6,81.63,114.94Z"/><path class="cls-7" d="M1619,1067.62s33.58,7.47,43.94,3.08c0,0,1.57-14-12.58-12.08-9.68,1.35-16-3.3-19.69-5.19C1625.38,1050.76,1617.56,1061.74,1619,1067.62Z"/><path class="cls-8" d="M1648.18,1046.45c-2.15,1.61-8.74-22.71-8.74-22.71a23.79,23.79,0,0,1,4.08,3.91,13,13,0,0,0,6.34,4.3C1649.88,1032.66,1650.27,1044.88,1648.18,1046.45Z"/><path class="cls-8" d="M1679.18,1042.24c-.47.28-16,9.58-18.11,9.58s11.45-17.46,11.45-17.46A40.58,40.58,0,0,0,1679.18,1042.24Z"/><path class="cls-9" d="M1557.05,1147.6c-.86-.74,32.94-49.77,42.25-50.13s30.23,10.74,45.37,12.18,29.82-2.87,32.69,6.08,10.74,40.69,5.9,45.77S1575.64,1163.48,1557.05,1147.6Z"/><path class="cls-10" d="M1588.89,1317.84c0,.06,0,.12,0,.17a112.2,112.2,0,0,1-3.76,23.2v0c-.3,1.1-.61,2.19-.94,3.28a114.5,114.5,0,0,1-8.27,20.09,116.59,116.59,0,0,1-15.75,22.83c-.16.19-.34.39-.51.57a120.75,120.75,0,0,1-27.54,22.84q-3.35,2-6.85,3.87-2.37,1.24-4.77,2.38c-1.53.88-3.14,1.64-4.66,2.57a65.35,65.35,0,0,1-15.93,6.56V1416c0-.09,0-.18,0-.26s0-.34,0-.5a5.12,5.12,0,0,1,.15-.56,5.36,5.36,0,0,1,5.21-3.77h-26.81a5.37,5.37,0,0,1-5.2-3.79,3.44,3.44,0,0,1-.15-.55,4.23,4.23,0,0,1-.05-.5,2.17,2.17,0,0,1,0-.26v-13.22a2.26,2.26,0,0,1,0-.26,4.23,4.23,0,0,1,.05-.5,3.44,3.44,0,0,1,.15-.55,5.36,5.36,0,0,1,5.2-3.78H1489a5.19,5.19,0,0,1-2.85-3.7c0-.11,0-.22,0-.33a1.64,1.64,0,0,1,0-.23,2.17,2.17,0,0,1,0-.26v-13.22a2.35,2.35,0,0,1,0-.26,2.73,2.73,0,0,1,.06-.49,3.7,3.7,0,0,1,.14-.55,5.36,5.36,0,0,1,5.21-3.79h6a5.38,5.38,0,0,1-5.21-3.78,5.12,5.12,0,0,1-.15-.56c0-.16,0-.33,0-.49V1346a5.27,5.27,0,0,1,4.77-4.79H1479a5.3,5.3,0,0,1-5.41-4.83,2.35,2.35,0,0,1,0-.27v-13.21a2.44,2.44,0,0,1,0-.27,1.49,1.49,0,0,1,0-.21,5.23,5.23,0,0,1,4.2-4.49,5.3,5.3,0,0,1-4.7-4.35,3.27,3.27,0,0,1,0-.44,2.44,2.44,0,0,1,0-.27V1299.7a2.44,2.44,0,0,1,0-.27,4.28,4.28,0,0,1,.05-.49,3.87,3.87,0,0,1,.15-.56,5.37,5.37,0,0,1,5.2-3.78H1489a5.17,5.17,0,0,1-2.85-3.69c0-.11,0-.22,0-.33a1.79,1.79,0,0,1,0-.23,2.35,2.35,0,0,1,0-.27v-13.21a2.44,2.44,0,0,1,0-.27,2.73,2.73,0,0,1,.06-.49,3.05,3.05,0,0,1,.14-.54,5.36,5.36,0,0,1,5.21-3.8h20.48a5.38,5.38,0,0,1-5.21-3.79c0-.17-.1-.36-.14-.54a4.23,4.23,0,0,1,0-.5,2.26,2.26,0,0,1,0-.26v-13.22a2.26,2.26,0,0,1,0-.26,5.25,5.25,0,0,1,4.76-4.79H1479a5.52,5.52,0,0,1-4.52-2.31V1246l3.4-20.76,0-.11,4.84-29.62a127.88,127.88,0,0,1,16.61,3.35l.95.26.07,0q4.75,1.32,9.39,3l.08,0A124,124,0,0,1,1548.8,1225c.2.17.41.35.6.54a117.63,117.63,0,0,1,16.33,17.58c1,1.29,1.92,2.59,2.84,3.92.3.44.61.88.9,1.33,0,0,0,0,0,0,1.48,2.18,2.88,4.42,4.22,6.72a114.77,114.77,0,0,1,7.93,16.64,111.56,111.56,0,0,1,6.08,22.83c0,.2.06.39.09.58A112,112,0,0,1,1588.89,1317.84Z"/><path class="cls-11" d="M1329.9,1365.3a123.32,123.32,0,1,1,167.54,48.46A123.33,123.33,0,0,1,1329.9,1365.3Z"/><path class="cls-4" d="M1492.65,1416.27c-1.52.92-3.07,1.82-4.63,2.69l-1.6.86c-1.22.65-2.43,1.27-3.66,1.88a123.34,123.34,0,0,1-126.4-210.8,125.68,125.68,0,0,1,12.58-8c1.59-.87,3.18-1.71,4.78-2.5s3.13-1.51,4.7-2.21a123.36,123.36,0,0,1,14.69-5.45,121.43,121.43,0,0,1,22.33-4.5,123.35,123.35,0,0,1,77.21,228Z"/><path class="cls-5" d="M1429.34,1422.78a111.13,111.13,0,0,1-30.86-4.4,109.86,109.86,0,1,1,30.86,4.4Zm-.34-218a107.51,107.51,0,1,0,94.34,55.59A106.8,106.8,0,0,0,1429,1204.73Z"/><path class="cls-5" d="M1483.53,1323c-.25-.6-.5-1.19-.77-1.77a32.3,32.3,0,0,0-7.48-10.68,33.43,33.43,0,0,0-11.77-6.93,56.17,56.17,0,0,0-15-2.81q-8.27-.51-18-.24a86.66,86.66,0,0,1-10.26-.2,25.86,25.86,0,0,1-7.22-1.58,12.7,12.7,0,0,1-4.82-3.27,17.12,17.12,0,0,1-3.07-5,18.77,18.77,0,0,1-1.39-5.93,12.84,12.84,0,0,1,.87-5.58,13.78,13.78,0,0,1,3.44-4.87,20.34,20.34,0,0,1,6.29-3.83q7.21-2.92,13.47.13t10.19,12.75l25.12-10.2a46.69,46.69,0,0,0-8.22-13.64,35.25,35.25,0,0,0-24.63-12.15,46.29,46.29,0,0,0-15.16,1.55l-7.12-17.52-13.9,5.64,7,17.28a52.26,52.26,0,0,0-12.77,9.09,38.8,38.8,0,0,0-8,11.22,31.11,31.11,0,0,0-3,12.67,37.16,37.16,0,0,0,10.93,26,32.76,32.76,0,0,0,11.76,6.89,55.7,55.7,0,0,0,15,2.71,177.38,177.38,0,0,0,18,0,66.82,66.82,0,0,1,9.8.07,25.46,25.46,0,0,1,7.18,1.59,13.57,13.57,0,0,1,5,3.42,18.23,18.23,0,0,1,3.38,5.58,15.54,15.54,0,0,1,1.2,6,12.64,12.64,0,0,1-1.34,5.67,16.07,16.07,0,0,1-4,5,24.23,24.23,0,0,1-6.74,4,29.07,29.07,0,0,1-7.38,1.91,16.9,16.9,0,0,1-7.44-.74,17.39,17.39,0,0,1-6.79-4.39,26.55,26.55,0,0,1-5.49-8.92l-25.12,10.2a43.1,43.1,0,0,0,9.88,15.36,35.43,35.43,0,0,0,13,8.12,39.71,39.71,0,0,0,14.79,2.13,62.41,62.41,0,0,0,15.23-2.51l6.49,16,13.82-5.62-6.52-16.06a56.24,56.24,0,0,0,12.9-9,38,38,0,0,0,7.78-10.17c.15-.29.3-.59.44-.89a30.73,30.73,0,0,0,3-12.61A34.07,34.07,0,0,0,1483.53,1323Z"/><path class="cls-3" d="M1808.1,855.8c-110.41,89.9-242.69,159-393.16,205.39-122.23,37.67-257.65,60.76-402.52,68.62-39.5,2.14-78,3.08-115,3.08-74.9,0-143.95-3.81-204.13-9.11l24.35-115.2c83,6.76,182.09,10.31,289.16,4.5,136.33-7.39,263.3-29,377.35-64.12,137.25-42.31,257.29-104.83,356.76-185.84Z"/><path class="cls-12" d="M984.87,626.07c-15.35-8-27.66-3-27.66-3-47-5.52-60.68,49.27-60,68.12S900,730.33,879,754.82c-60.61,70.74,66.31,73.86,66.31,73.86,1.08-56.52,68.83-35.9,65.86-30.17C1098,819.36,1019.79,644.18,984.87,626.07Z"/><path class="cls-13" d="M803.65,861.7s-8.26-12.58-14.92-12.82-19-3.7-18-1.24,8.63,2.72,9.37,4.19-11.34,3.7-14.79,3.95-11.59,0-11.35,1.73,14.67,8.87,24.84,7.89,22.76,3,22.76,3Z"/><path class="cls-14" d="M923.13,865.77a124.16,124.16,0,0,1-12.63,19.11c-9.82,12.29-25,26.5-44,29.3-9.08,1.34-18-.61-26.12-4.24h0c-23.08-10.24-40.44-33.8-40.44-33.8a19,19,0,0,1,2.59-18.63s46.61,10.49,51.05,8.27,30.33-76.82,36.5-86.19,27.18-14.24,27.18-14.24Z"/><path class="cls-15" d="M910.5,884.88c-9.82,12.29-25,26.5-44,29.3-9.08,1.34-18-.61-26.12-4.24.9.12,24,3,33.15-13.47,9.37-16.77,19.5-43.4,33.43-34.53C913,865.78,912.74,875.3,910.5,884.88Z"/><path class="cls-16" d="M1097,1368.88s14.22,13,11.45,22.2-15.61,15.37-17.35,26.64-8.67,17.42-14.91,17.42h-29.77s-4.6-7.93,6.5-10.32,15.29-15.64,14.59-27.93,1-28.7,1-28.7l23.58-5.46Z"/><path class="cls-17" d="M976.65,1374.39s5.11,55-1.13,58l-79.91-.16s0-9.22,12.84-11.27,35.38-9.56,39.19-26.3S976.65,1374.39,976.65,1374.39Z"/><path class="cls-13" d="M1033.59,979.93c-16.45-36.88-26.51-47.46-24.59-58.91,1.43-8.52-4.35-158.83-4.35-158.83-1.95-.6-5.86-1.15-8-1.62A20.08,20.08,0,0,1,982,747.83c-2.8-7.84-5-19.41-5-33.92l-2.11.42-35.41,7s.8,11.15.82,21.65c0,.08,0,.17,0,.26a20.38,20.38,0,0,1-14.7,19.7c-4.48,1.29-8.37,2.39-8.37,2.39s-13,37.13-15.49,75.27,23.65,54.71-.2,130.94C877.24,1049.39,1042.67,1000.3,1033.59,979.93Z"/><path class="cls-18" d="M939.51,721.34s.8,11.15.82,21.65c19.82-.56,30.3-18.64,34.59-28.66Z"/><path class="cls-13" d="M932.89,731.28s46.89.78,46.92-28.43,6.11-48.78-23.83-50.51-35.77,9.41-38.15,19.16S920.69,730.33,932.89,731.28Z"/><path class="cls-12" d="M934.62,651.63s12.84,34.26,32.54,39.33,28.25-.21,28.25-.21a55.84,55.84,0,0,1-18.25-33S944.31,635.32,934.62,651.63Z"/><path class="cls-12" d="M937.8,654.41s-9.52,3.56-13.43,10.5A47.11,47.11,0,0,0,918,691.72s-9.68-23.29,1.2-36.46C930.75,641.29,937.8,654.41,937.8,654.41Z"/><path class="cls-1" d="M943.09,713.16a11.81,11.81,0,0,1-9.71,4,8.62,8.62,0,0,1-7.22-4.78S935.73,710,943.09,713.16Z"/><path class="cls-14" d="M1038.11,828.68a318.57,318.57,0,0,1,0,36.94c-.79,13.35-14.3,31.23-16.21,35.66-4.81,11.1-10.23,12.9-10.23,12.9l-42,10.28L955,928.07l-46.52-13.89S887.25,855,895.76,821.75s21.51-56.41,21.51-56.41,38,37.17,87.38-3.15Z"/><path class="cls-19" d="M911.4,923.16s-23,71.71-24.52,96.12,44,346.82,45.87,358.07c1.73,10.6,14.89,17.36,14.89,17.36s6.06,3.57,14.7,1.13c12-3.38,15.78-7.44,15.78-7.44s17.94-229.94,6.84-312.07a1300.46,1300.46,0,0,1-11.23-153.17Z"/><path class="cls-17" d="M1009,921s35.15,47.15,38.42,79,5.14,143.83,12.12,174.91,32.62,90.86,32.62,187.78c0,0-2.66,5.55-10.89,8.51a87.76,87.76,0,0,1-9.58,2.65,15.05,15.05,0,0,1-16.85-8c-17.34-34.9-72.56-147.48-75.4-170.85-2-16.54-19.44-126-57.47-190.23-9.13-15.41,5.6-76.74,5.6-76.74Z"/><path class="cls-20" d="M942.05,714s-.81,3.44-9.38,2.91c0,0-7.18-.45-7-4.23C925.7,712.63,932.67,709.94,942.05,714Z"/><path class="cls-19" d="M907.72,912.09s9.25,7.31,27.62,7.68c21.94.45,76.32-5.59,76.32-5.59a44.88,44.88,0,0,1,2.32,13.88s-66.41,16.75-104.89,2.44C909.09,930.5,904.12,921.17,907.72,912.09Z"/><path class="cls-20" d="M930.08,938.69c-5.53,0-10-5.09-10-11.34s4.49-11.33,10-11.33,10,5.08,10,11.33S935.6,938.69,930.08,938.69Zm0-19.35c-3.7,0-6.7,3.59-6.7,8s3,8,6.7,8,6.69-3.6,6.69-8S933.77,919.34,930.08,919.34Z"/><rect class="cls-21" x="963.48" y="846.36" width="90.22" height="123.5" transform="translate(-348.4 885.59) rotate(-41.05)"/><path class="cls-13" d="M996.32,925.28s-24.93,2.91-24.86,8.83,6.22,18.08,9.3,18.62S1001,936.28,1001,936.28Z"/><path class="cls-22" d="M1004.65,762.19s33.29,2.33,46.05,33.35,37,83.09,37,91.85-13.52,35.77-86.14,51.3c0,0-7.51-7.91-7.06-14.16,0,0,45.34-38.93,45.21-43.48-.23-8.61-7.43-20-47.23-59.79C981.62,810.43,1004.65,762.19,1004.65,762.19Z"/><path class="cls-23" d="M284.65,1435.06h-.33a3.46,3.46,0,0,1-3.45-3.53l5.24-226.86,15.42-1.8-13.15,228.68A3.74,3.74,0,0,1,284.65,1435.06Z"/><path class="cls-24" d="M532.58,1435.06h.33a3.44,3.44,0,0,0,3.45-3.53l-5.23-226.86-15.42-1.8,13.15,228.68A3.73,3.73,0,0,0,532.58,1435.06Z"/><path class="cls-24" d="M274.44,1190.6V1035.14A49.52,49.52,0,0,1,324,985.61H436a49.53,49.53,0,0,1,49.53,49.53v161.4Z"/><path class="cls-23" d="M274.44,1190.6H505.57a0,0,0,0,1,0,0v24.54a0,0,0,0,1,0,0H289.31a14.87,14.87,0,0,1-14.87-14.87v-9.67A0,0,0,0,1,274.44,1190.6Z"/><rect class="cls-24" x="356.88" y="1190.6" width="185.6" height="24.54" rx="11"/><path class="cls-19" d="M525.13,1151.86c-16.05,27.93-36.23,38.71-36.23,38.71h-84S537.37,1130.56,525.13,1151.86Z"/><path class="cls-13" d="M460.65,1367.93a7.76,7.76,0,0,0-1.39,8.3s0,0,0,0c2,5.53,8.62,11.71,16.31,17.88,1,.79,1.85,1.51,2.61,2.18l.59.53.45.41c7.17,6.6,4.47,8.12,17.35,21.52,14.68,15.27,24.78,15.55,27.66,14.16,2.43-1.19-2.51-9.29-8-18.39-.26-.44-.52-.89-.8-1.33-.73-1.21-1.45-2.44-2.17-3.66-6.42-11-4.77-16.1-3.25-32.41,1.23-13.25,20.61-74,20.61-74l-28.13-4.85s-8.47,48.41-17.8,55.86c-5,4-10.58,4-15.38,7-.34.2-.67.41-1,.63A36.81,36.81,0,0,0,460.65,1367.93Z"/><path class="cls-19" d="M460.65,1367.93a7.76,7.76,0,0,0-1.39,8.3s0,0,0,0c2.46,5.52,8.9,11.67,16.33,17.82,1,.81,1.83,1.55,2.59,2.24l.59.53.45.41c7.17,6.6,4.47,8.12,17.35,21.52,14.68,15.27,24.78,15.55,27.66,14.16,2.43-1.19-2.51-9.29-8-18.39a62.58,62.58,0,0,1-26.17-19.29c-8.84-11.28-14.73-25.77-20.75-34.16-.34.2-.67.41-1,.63A36.81,36.81,0,0,0,460.65,1367.93Z"/><path class="cls-13" d="M687.48,1350.36c1.74,8.69,14.12,7.24,27.95,3.86s10.54.64,30.22-1.54,25.64-9.52,26.25-12.45c.53-2.59-9.19-3.51-19.62-4.71l-3.95-.47c-11.78-1.48-20.4-9.08-31.1-15.32-10.13-5.91-25.25-30-25.25-30l-27,2.14s14.17,21.51,19.65,30.87c3.22,5.5,3,12.77,2.65,18.39A34.82,34.82,0,0,0,687.48,1350.36Z"/><path class="cls-19" d="M715.43,1354.22c13.83-3.38,10.54.64,30.22-1.54s25.64-9.52,26.25-12.45c.53-2.59-9.19-3.51-19.62-4.71l-.1.2a55.45,55.45,0,0,1-28.19,8.76c-13.35.33-27.49-3.5-36.71-3.35a34.82,34.82,0,0,0,.2,9.23C689.22,1359.05,701.6,1357.6,715.43,1354.22Z"/><path class="cls-19" d="M584.05,1177.77l-25.24,67.9-32.94,88.65a53.13,53.13,0,0,1-17.5-1.6c-7.88-2.27-16.92-8.23-16.92-8.23s9.14-95.19,26.21-149.83c4.37-14,9.27-25.38,14.68-31.76C558.79,1111.64,584.05,1177.77,584.05,1177.77Z"/><path class="cls-17" d="M558.39,1069.94c-16.53-5.33-63.68,1.52-111,10.79l-9.91-16.36-102.3-8s-33.76,74.86-15.28,122.56c2.72,7,8.12,11.51,17.32,11.66h1.49l80.66,0c50.87,0,107.66-35,115-36.44,12-2.4,16.84,21.65,28.86,46.9s113,111.84,113,111.84,15.52.15,21.94-2.25c6.89-2.59,9.42-5.95,9.42-5.95S595.67,1082,558.39,1069.94Z"/><path class="cls-21" d="M433.41,766.5c-13.1-6.88-33-7.81-36.28-8.25-38.77-5.21-62.1,51.12-63.47,68.19-2.53,31.46-19.17,36.26-42.6,56-47,39.5-33.19,85.41-7.51,102.47,15.41,10.23,42.57,0,42.57,0,.39.27,74.29-41.31,110.72-61.37C491.45,915.73,466.81,784,433.41,766.5Z"/><path class="cls-13" d="M406.3,906.42c.16.11-17.92,6.28-30,.92-11.38-5-20-23.74-19.83-23.75,5.18-.24,10.86-4.76,15.23-34.45l2.21.79L411,863.27s-2.69,11.88-4.42,23.2C405.07,896,404.28,905.08,406.3,906.42Z"/><path class="cls-25" d="M411,863.27s-2.69,11.88-4.42,23.2c-21.28-3.83-29.64-25-32.63-36.54Z"/><path class="cls-13" d="M416.46,875.06s-50.69-6.8-46-38.3,1.36-53.6,33.92-50.59,37,16,38,26.88S429.77,876,416.46,875.06Z"/><path class="cls-21" d="M440.59,795.78s-32.45,28-54.52,30.22-30.43-4.83-30.43-4.83a86.3,86.3,0,0,0,20.84-28.24,15.53,15.53,0,0,1,12.8-9.15C405,782.42,434.91,781.8,440.59,795.78Z"/><path class="cls-21" d="M420.31,793.27s10.85,10.5,14.27,18.29c3.3,7.51,4.29,25.48,1.66,32.61,0,0,16.92-32.89,7.34-48.86C433.43,778.36,420.31,793.27,420.31,793.27Z"/><path class="cls-26" d="M449,981.09c-1.54,102.61-.42,81.17-11.65,90.91-2.7,2.34-10.31,3.74-20.31,4.4-31.47,2.09-86.77-3.1-88.88-8.91-7.26-20.12-2.13-26.37-8.19-57.17-.63-3.28-1.41-6.82-2.33-10.69-5-21.15-10-28.35,7.95-62.34,16.25-30.78,33.12-55.77,34.64-54.87,42.85,25.44,46.31,4.06,46.31,4.06S449.74,931,449,981.09Z"/><path class="cls-17" d="M558.81,1245.67l-32.94,88.65a53.13,53.13,0,0,1-17.5-1.6c-7.88-2.27-16.92-8.23-16.92-8.23s9.14-95.19,26.21-149.83Z"/><path class="cls-27" d="M406.53,886.47s44.09,7.48,49.27,26.46,35.65,130.59,35.65,130.59-22.42,4-32.78-6.32-36-96.08-36-96.08Z"/><path class="cls-28" d="M417,1076.4c-31.47,2.09-86.77-3.1-88.88-8.91-7.26-20.12-2.13-26.37-8.19-57.17l15.18-42.74s-2.51,47.59,11.52,60.11,57.46,24.16,64.28,34.62C414.23,1067.32,416.4,1072.36,417,1076.4Z"/><path class="cls-13" d="M381,1056.38s31-6.91,36-4.15,17.25,12.78,18.78,16.28-11.15-2.65-15.28-3.76c-2.67-.72-9.7,1.73-13.18,2.89-14.65,4.88-23.63,2.37-23.63,2.37Z"/><path class="cls-27" d="M360.19,882.4s-41.68,2.57-56.11,22.69c-20.31,28.33-60.6,149.05-37.51,165.16,26,18.13,118.35,4.74,118.35,4.74s3.08-14.37-1.2-21.31-73.76-18.18-77-21.38,40.09-62.54,40.09-72.16S360.19,882.4,360.19,882.4Z"/><path class="cls-13" d="M418.53,1060.87s6.5,8.39,8.64,9.39a6.34,6.34,0,0,0,3.5.75l-4.38-7.89Z"/><path class="cls-13" d="M417,1052.23l18.91,9.18a3.38,3.38,0,0,1-3.14,1.21c-2.32-.11-8.2-2.25-8.2-2.25Z"/><polygon class="cls-3" points="420.33 1083.11 579.86 1083.11 627.85 971.22 468.56 971.22 420.33 1083.11"/><polygon class="cls-3" points="581.73 1075.86 371.06 1075.86 371.06 1082.93 579.86 1082.93 581.73 1075.86"/><path class="cls-1" d="M539.59,1027.16c1.2-3.93-1.23-7.12-5.42-7.12a10.79,10.79,0,0,0-9.77,7.12c-1.21,3.94,1.22,7.13,5.41,7.13A10.8,10.8,0,0,0,539.59,1027.16Z"/><path class="cls-19" d="M815.75,1438.18h.43a4.83,4.83,0,0,0,4.57-5.15l-6.93-331-20.39-2.63,17.39,333.66A5.17,5.17,0,0,0,815.75,1438.18Z"/><path class="cls-19" d="M385.93,1438.18h-.43a4.82,4.82,0,0,1-4.56-5.15l6.92-331,20.39-2.63-17.39,333.66A5.17,5.17,0,0,1,385.93,1438.18Z"/><rect class="cls-19" x="351.86" y="1083.11" width="479.34" height="23.69" rx="7.43"/><rect class="cls-29" x="0.31" y="1431.93" width="2525.05" height="10.77" rx="3.63"/></g></g></svg>